<?xml version="1.0" encoding="UTF-8" standalone="no"?>
<svg
   xmlns:dc="http://purl.org/dc/elements/1.1/"
   xmlns:cc="http://creativecommons.org/ns#"
   xmlns:rdf="http://www.w3.org/1999/02/22-rdf-syntax-ns#"
   xmlns:svg="http://www.w3.org/2000/svg"
   xmlns="http://www.w3.org/2000/svg"
   width="210.27017mm"
   height="5.3216343mm"
   viewBox="0 0 745.05179 18.856181"
   id="svg5255"
   version="1.1">
  <defs
     id="defs5257" />
  <metadata
     id="metadata5260">
    <rdf:RDF>
      <cc:Work
         rdf:about="">
        <dc:format>image/svg+xml</dc:format>
        <dc:type
           rdf:resource="http://purl.org/dc/dcmitype/StillImage" />
        <dc:title></dc:title>
      </cc:Work>
    </rdf:RDF>
  </metadata>
  <g
     transform="matrix(1.3044892,0,0,1,-171.63245,-480.07703)"
     id="layer1">
    <path
       id="path68"
       style="fill:#444142;fill-opacity:1;fill-rule:nonzero;stroke:none"
       d="m 474.39733,484.84539 c 2.11733,0 3.83847,1.78609 3.83847,3.97162 0,2.20176 -1.72114,3.97486 -3.83847,3.97486 -2.12058,0 -3.84172,-1.7731 -3.84172,-3.97486 0,-2.18553 1.72114,-3.97162 3.84172,-3.97162 z m 22.42682,-0.77289 c 0,0 15.89622,3.58517 29.23021,3.85146 0,0 -20.51408,1.02619 -28.46057,4.86791 0,0 -5.64405,-3.58842 -7.94973,-4.36131 0,0 5.6408,-2.55898 7.18009,-4.35806 z m -22.82301,11.02505 c 3.84822,0 6.96576,-2.62717 7.0437,-5.8941 l 2.70187,0 c 4.36131,0 12.82089,5.8941 12.82089,5.8941 8.6252,-4.5594 45.62004,-6.11817 46.38968,-6.1474 l 158.60497,0 c 0.63649,0 1.15284,-0.51959 1.15284,-1.15933 0,-0.63975 -0.51635,-1.14635 -1.15284,-1.14635 l -158.32894,0 0,0 c -31.28259,-0.51959 -48.20499,-4.10476 -48.20499,-4.10476 -3.35786,4.25089 -10.61264,5.18616 -14.11338,5.34528 -0.64299,-2.76032 -3.491,-4.84193 -6.9138,-4.84193 -3.89368,0 -7.05019,2.70836 -7.05019,6.02725 0,3.33512 3.15651,6.02724 7.05019,6.02724" />
    <path
       id="path70"
       style="fill:#444142;fill-opacity:1;fill-rule:nonzero;stroke:none"
       d="m 337.46578,484.0725 c 1.53929,1.79908 7.18334,4.35806 7.18334,4.35806 -2.30893,0.77289 -7.94974,4.36131 -7.94974,4.36131 -7.94973,-3.84172 -28.46056,-4.86791 -28.46056,-4.86791 13.32749,-0.26629 29.22696,-3.85146 29.22696,-3.85146 z m 22.43007,0.77289 c 2.12057,0 3.83847,1.78609 3.83847,3.97162 0,2.20176 -1.7179,3.97486 -3.83847,3.97486 -2.11733,0 -3.83848,-1.7731 -3.83848,-3.97486 0,-2.18553 1.72115,-3.97162 3.83848,-3.97162 z m -227.17336,4.10476 158.61211,0 c 0.76737,0.0292 37.76253,1.588 46.39097,6.1474 0,0 8.45958,-5.8941 12.8209,-5.8941 l 2.69537,0 c 0.0844,3.26693 3.20522,5.8941 7.0437,5.8941 3.89693,0 7.05344,-2.69212 7.05344,-6.02724 0,-3.31889 -3.15651,-6.02725 -7.05344,-6.02725 -3.41631,0 -6.26756,2.08161 -6.9138,4.84193 -3.49425,-0.15912 -10.75227,-1.09439 -14.10688,-5.34528 0,0 -16.92241,3.58517 -48.20695,4.10476 l -158.33542,0 c -0.63552,0 -1.15187,0.5066 -1.15187,1.14635 0,0.63974 0.51635,1.15933 1.15187,1.15933" />
    <path
       id="path72"
       style="fill:#444142;fill-opacity:1;fill-rule:nonzero;stroke:none"
       d="m 444.47217,490.20366 c -5.1407,-3.7995 -15.36364,-1.24052 -23.54719,2.33491 -8.19978,3.58518 -15.89297,6.14416 -15.89297,6.14416 4.61462,1.54903 15.23699,-4.46523 26.15164,-7.68994 9.51824,-2.80254 12.88584,-1.04243 13.28852,-0.78913" />
    <path
       id="path74"
       style="fill:#444142;fill-opacity:1;fill-rule:nonzero;stroke:none"
       d="m 388.87925,488.36561 c 1.34768,1.34769 5.71549,2.77332 14.61348,-0.18835 6.92354,-2.30568 16.92565,-6.3455 16.92565,-6.3455 -7.50158,-0.7599 -9.42407,2.49404 -19.23458,5.57261 -8.85252,2.7863 -12.30455,0.96124 -12.30455,0.96124" />
    <path
       id="path76"
       style="fill:#444142;fill-opacity:1;fill-rule:nonzero;stroke:none"
       d="m 383.98536,498.75092 c 10.13526,0.73393 18.72473,-2.91944 27.02844,-6.45266 l 3.59491,-1.5198 c 8.64469,-3.67935 20.48485,-8.72262 31.34754,-8.3719 9.92093,0.31825 15.61044,2.91945 15.61044,7.11839 0,3.67935 -3.52347,5.81292 -10.46974,6.3455 -6.982,0.54881 -13.04172,-3.59817 -13.10017,-3.64038 -0.52284,-0.36047 -1.24053,-0.24032 -1.60424,0.29551 -0.36371,0.51959 -0.23706,1.24052 0.28902,1.59774 0.26954,0.18835 6.77091,4.65358 14.59075,4.05606 10.41779,-0.80212 12.60007,-5.1472 12.60007,-8.65443 0,-3.3059 -2.31543,-8.92072 -17.84144,-9.42732 -11.37253,-0.36047 -22.92692,4.06579 -31.7697,7.82633 l -3.58842,1.5198 c -8.05365,3.4293 -16.93865,7.70942 -26.5186,7.00148 -11.32382,-0.8151 -12.77543,-4.43925 -12.77543,-7.49509 0,-0.88005 0.34098,-1.63996 1.03594,-2.31867 1.86078,-1.79908 6.09219,-2.84151 11.04129,-2.67914 6.01426,0.17212 10.50547,1.90625 10.56068,1.93223 0.57479,0.27928 1.26325,0.039 1.54253,-0.53258 0.27603,-0.5748 0.0357,-1.2665 -0.53583,-1.54903 -0.25654,-0.11691 -4.97832,-1.95821 -11.49593,-2.1563 -5.63756,-0.17536 -10.39181,1.06516 -12.72023,3.33187 -1.15284,1.10738 -1.73738,2.45182 -1.73738,3.97162 0,5.94606 4.74127,9.06685 14.9155,9.80077" />
  </g>
</svg>
